<?xml version="1.0" encoding="utf-8"?>
<!-- Generator: Adobe Illustrator 22.0.1, SVG Export Plug-In . SVG Version: 6.00 Build 0)  -->
<svg version="1.1" id="Lager_1" xmlns="http://www.w3.org/2000/svg" xmlns:xlink="http://www.w3.org/1999/xlink" x="0px" y="0px"
	 viewBox="0 0 1280 1024" style="enable-background:new 0 0 1280 1024;" xml:space="preserve">
<style type="text/css">
	.st0{fill:#FFFFFF;}
</style>
<g>
	<polygon class="st0" points="155.4,269.5 265.7,269.5 262,241.7 164.3,238.6 	"/>
	<polygon class="st0" points="983.5,263.3 1006.7,223.2 1126.6,223.2 1150.8,263.3 	"/>
	<path class="st0" d="M0,514.9h487c0,0,246.3-298,526.4,5.9h259V359.3c0,0-8.4-66.1-83-64.6l-328,0l-71.8-99.8h-304l-64.7,86.6
		l-15.5,14.7l-325.2-2.9c0,0-54.9,0-80.2,64.6V514.9z"/>
	<ellipse class="st0" cx="750.1" cy="663.6" rx="160.1" ry="166.9"/>
	<path class="st0" d="M0,557.9h452.9c0,0-36.2,349.8,297.1,363.4c0,0,331.8-10.6,281.2-363.4h241.1l7.5,389c0,0-17.4,81.4-76.6,76.9
		L75.6,1024c0,0-75.9-4.7-75.6-69.5V557.9z"/>
</g>
</svg>
