<?xml version="1.0" encoding="utf-8"?>
<!-- Generator: Adobe Illustrator 22.0.1, SVG Export Plug-In . SVG Version: 6.00 Build 0)  -->
<svg version="1.1" id="Lager_1" xmlns="http://www.w3.org/2000/svg" xmlns:xlink="http://www.w3.org/1999/xlink" x="0px" y="0px"
	 viewBox="0 0 1280 1024" style="enable-background:new 0 0 1280 1024;" xml:space="preserve">
<style type="text/css">
	.st0{fill:#FFFFFF;}
</style>
<path class="st0" d="M41,897.8c0,0,193.6,7.6,317.9-96.4c0,0-157.5-42-199.3-158.4c0,0,41.8,7.6,81.6-28.6
	c0,0-176.5-72.5-176.5-199.4c0,0,50.3,28.6,78.8-24.8c0,0-133.8-109.7-58.8-310.1c0,0,243,230.9,510.6,230.9c0,0,29.8,5,21.2-56.1
	c0,0,17.2-176.7,175.2-230.1c0,0,164.7-48.1,286.3,68.8l153.2-51l-56.5,106.9l85.2-12.5l-108.7,129c0,0,1.6,417.9-318.5,620.2
	C832.8,886.1,398.1,1154.7,41,897.8z"/>
</svg>
